solid CATIA STL
  facet normal  0.000000e+000 -1.000000e+000  0.000000e+000
    outer loop
      vertex -9.383423e-001  0.000000e+000  2.307317e+000
      vertex -1.835298e+000  0.000000e+000 -4.637933e+000
      vertex -1.416268e+000  0.000000e+000 -4.368639e+000
    endloop
  endfacet
  facet normal  0.000000e+000 -1.000000e+000  0.000000e+000
    outer loop
      vertex  3.768489e-002  0.000000e+000 -4.368639e+000
      vertex -4.402404e-001  0.000000e+000  2.307317e+000
      vertex -4.402404e-001  0.000000e+000 -4.228307e+000
    endloop
  endfacet
  facet normal  0.000000e+000 -1.000000e+000  0.000000e+000
    outer loop
      vertex -4.402404e-001  0.000000e+000  2.307317e+000
      vertex  3.768489e-002  0.000000e+000 -4.368639e+000
      vertex  4.567149e-001  0.000000e+000 -4.637933e+000
    endloop
  endfacet
  facet normal  0.000000e+000 -1.000000e+000  0.000000e+000
    outer loop
      vertex  5.660708e+000  0.000000e+000 -9.460495e+000
      vertex  9.898213e-001  0.000000e+000  4.532537e+000
      vertex  1.060709e+000  0.000000e+000  4.039505e+000
    endloop
  endfacet
  facet normal  0.000000e+000 -1.000000e+000  -0.000000e+000
    outer loop
      vertex  5.660708e+000  0.000000e+000 -9.460495e+000
      vertex  1.060709e+000  0.000000e+000  4.039505e+000
      vertex  9.898213e-001  0.000000e+000  3.546473e+000
    endloop
  endfacet
  facet normal  0.000000e+000 -1.000000e+000  -0.000000e+000
    outer loop
      vertex  5.660708e+000  0.000000e+000 -9.460495e+000
      vertex  9.898213e-001  0.000000e+000  3.546473e+000
      vertex  7.829023e-001  0.000000e+000  3.093384e+000
    endloop
  endfacet
  facet normal  0.000000e+000 -1.000000e+000  -0.000000e+000
    outer loop
      vertex  5.660708e+000  0.000000e+000 -9.460495e+000
      vertex  7.829023e-001  0.000000e+000  3.093384e+000
      vertex  4.567149e-001  0.000000e+000  2.716943e+000
    endloop
  endfacet
  facet normal  0.000000e+000 -1.000000e+000  -0.000000e+000
    outer loop
      vertex  5.660708e+000  0.000000e+000 -9.460495e+000
      vertex  4.567149e-001  0.000000e+000  2.716943e+000
      vertex  3.768489e-002  0.000000e+000  2.447649e+000
    endloop
  endfacet
  facet normal  0.000000e+000 -1.000000e+000  -0.000000e+000
    outer loop
      vertex  5.660708e+000  0.000000e+000 -9.460495e+000
      vertex  3.768489e-002  0.000000e+000  2.447649e+000
      vertex -4.402404e-001  0.000000e+000  2.307317e+000
    endloop
  endfacet
  facet normal  0.000000e+000 -1.000000e+000  0.000000e+000
    outer loop
      vertex  5.660708e+000  0.000000e+000 -9.460495e+000
      vertex -4.402404e-001  0.000000e+000  2.307317e+000
      vertex  4.567149e-001  0.000000e+000 -4.637933e+000
    endloop
  endfacet
  facet normal  0.000000e+000 -9.999999e-001  0.000000e+000
    outer loop
      vertex  5.660708e+000  0.000000e+000 -9.460495e+000
      vertex  4.567149e-001  0.000000e+000 -4.637933e+000
      vertex  7.829023e-001  0.000000e+000 -5.014374e+000
    endloop
  endfacet
  facet normal  0.000000e+000 -1.000000e+000  0.000000e+000
    outer loop
      vertex  5.660708e+000  0.000000e+000 -9.460495e+000
      vertex  7.829023e-001  0.000000e+000 -5.014374e+000
      vertex  9.898213e-001  0.000000e+000 -5.467463e+000
    endloop
  endfacet
  facet normal  0.000000e+000 -1.000000e+000  0.000000e+000
    outer loop
      vertex  5.660708e+000  0.000000e+000 -9.460495e+000
      vertex  9.898213e-001  0.000000e+000 -5.467463e+000
      vertex  1.060709e+000  0.000000e+000 -5.960495e+000
    endloop
  endfacet
  facet normal  0.000000e+000 -1.000000e+000  -0.000000e+000
    outer loop
      vertex  5.660708e+000  0.000000e+000 -9.460495e+000
      vertex  1.060709e+000  0.000000e+000 -5.960495e+000
      vertex  9.898213e-001  0.000000e+000 -6.453527e+000
    endloop
  endfacet
  facet normal  0.000000e+000 -1.000000e+000  -0.000000e+000
    outer loop
      vertex  5.660708e+000  0.000000e+000 -9.460495e+000
      vertex  9.898213e-001  0.000000e+000 -6.453527e+000
      vertex  7.829023e-001  0.000000e+000 -6.906616e+000
    endloop
  endfacet
  facet normal  0.000000e+000 -1.000000e+000  -0.000000e+000
    outer loop
      vertex  5.660708e+000  0.000000e+000 -9.460495e+000
      vertex  7.829023e-001  0.000000e+000 -6.906616e+000
      vertex  4.567149e-001  0.000000e+000 -7.283057e+000
    endloop
  endfacet
  facet normal  0.000000e+000 -1.000000e+000  -0.000000e+000
    outer loop
      vertex  5.660708e+000  0.000000e+000 -9.460495e+000
      vertex  4.567149e-001  0.000000e+000 -7.283057e+000
      vertex  3.768489e-002  0.000000e+000 -7.552351e+000
    endloop
  endfacet
  facet normal  0.000000e+000 -1.000000e+000  -0.000000e+000
    outer loop
      vertex  5.660708e+000  0.000000e+000 -9.460495e+000
      vertex  3.768489e-002  0.000000e+000 -7.552351e+000
      vertex -4.402404e-001  0.000000e+000 -7.692683e+000
    endloop
  endfacet
  facet normal  0.000000e+000 -1.000000e+000  0.000000e+000
    outer loop
      vertex  5.660708e+000  0.000000e+000 -9.460495e+000
      vertex -4.402404e-001  0.000000e+000 -7.692683e+000
      vertex  3.660709e+000  0.000000e+000 -1.146049e+001
    endloop
  endfacet
  facet normal  0.000000e+000 -9.999999e-001  0.000000e+000
    outer loop
      vertex  5.660708e+000  0.000000e+000 -9.460495e+000
      vertex  3.660709e+000  0.000000e+000 -1.146049e+001
      vertex  4.178347e+000  0.000000e+000 -1.139235e+001
    endloop
  endfacet
  facet normal  0.000000e+000 -1.000000e+000  0.000000e+000
    outer loop
      vertex  5.660708e+000  0.000000e+000 -9.460495e+000
      vertex  4.178347e+000  0.000000e+000 -1.139235e+001
      vertex  4.660708e+000  0.000000e+000 -1.119255e+001
    endloop
  endfacet
  facet normal  0.000000e+000 -9.999999e-001  0.000000e+000
    outer loop
      vertex  5.660708e+000  0.000000e+000 -9.460495e+000
      vertex  4.660708e+000  0.000000e+000 -1.119255e+001
      vertex  5.074922e+000  0.000000e+000 -1.087471e+001
    endloop
  endfacet
  facet normal  0.000000e+000 -1.000000e+000  0.000000e+000
    outer loop
      vertex  5.660708e+000  0.000000e+000 -9.460495e+000
      vertex  5.074922e+000  0.000000e+000 -1.087471e+001
      vertex  5.392759e+000  0.000000e+000 -1.046049e+001
    endloop
  endfacet
  facet normal  0.000000e+000 -1.000000e+000  0.000000e+000
    outer loop
      vertex  5.660708e+000  0.000000e+000 -9.460495e+000
      vertex  5.392759e+000  0.000000e+000 -1.046049e+001
      vertex  5.592560e+000  0.000000e+000 -9.978133e+000
    endloop
  endfacet
  facet normal  0.000000e+000 -1.000000e+000  0.000000e+000
    outer loop
      vertex -9.383423e-001  0.000000e+000 -7.692683e+000
      vertex -7.039291e+000  0.000000e+000 -9.460495e+000
      vertex -6.971143e+000  0.000000e+000 -9.978133e+000
    endloop
  endfacet
  facet normal  0.000000e+000 -9.999999e-001  0.000000e+000
    outer loop
      vertex -9.383423e-001  0.000000e+000 -7.692683e+000
      vertex -6.971143e+000  0.000000e+000 -9.978133e+000
      vertex -6.771342e+000  0.000000e+000 -1.046049e+001
    endloop
  endfacet
  facet normal  0.000000e+000 -1.000000e+000  0.000000e+000
    outer loop
      vertex -9.383423e-001  0.000000e+000 -7.692683e+000
      vertex -6.771342e+000  0.000000e+000 -1.046049e+001
      vertex -6.453505e+000  0.000000e+000 -1.087471e+001
    endloop
  endfacet
  facet normal  0.000000e+000 -1.000000e+000  0.000000e+000
    outer loop
      vertex -9.383423e-001  0.000000e+000 -7.692683e+000
      vertex -6.453505e+000  0.000000e+000 -1.087471e+001
      vertex -6.039291e+000  0.000000e+000 -1.119255e+001
    endloop
  endfacet
  facet normal  0.000000e+000 -1.000000e+000  0.000000e+000
    outer loop
      vertex -9.383423e-001  0.000000e+000 -7.692683e+000
      vertex -6.039291e+000  0.000000e+000 -1.119255e+001
      vertex -5.556930e+000  0.000000e+000 -1.139235e+001
    endloop
  endfacet
  facet normal  0.000000e+000 -1.000000e+000  0.000000e+000
    outer loop
      vertex -9.383423e-001  0.000000e+000 -7.692683e+000
      vertex -5.556930e+000  0.000000e+000 -1.139235e+001
      vertex -5.039291e+000  0.000000e+000 -1.146049e+001
    endloop
  endfacet
  facet normal  0.000000e+000 -1.000000e+000  0.000000e+000
    outer loop
      vertex -9.383423e-001  0.000000e+000 -7.692683e+000
      vertex -5.039291e+000  0.000000e+000 -1.146049e+001
      vertex  3.660709e+000  0.000000e+000 -1.146049e+001
    endloop
  endfacet
  facet normal  0.000000e+000 -9.999999e-001  0.000000e+000
    outer loop
      vertex -9.383423e-001  0.000000e+000 -7.692683e+000
      vertex  3.660709e+000  0.000000e+000 -1.146049e+001
      vertex -4.402404e-001  0.000000e+000 -7.692683e+000
    endloop
  endfacet
  facet normal  -0.000000e+000 -1.000000e+000  -0.000000e+000
    outer loop
      vertex  5.660708e+000  0.000000e+000  7.539505e+000
      vertex  5.592560e+000  0.000000e+000  8.057143e+000
      vertex  5.392759e+000  0.000000e+000  8.539505e+000
    endloop
  endfacet
  facet normal  -0.000000e+000 -1.000000e+000  -0.000000e+000
    outer loop
      vertex  5.660708e+000  0.000000e+000  7.539505e+000
      vertex  5.392759e+000  0.000000e+000  8.539505e+000
      vertex  5.074922e+000  0.000000e+000  8.953718e+000
    endloop
  endfacet
  facet normal  -0.000000e+000 -9.999999e-001  -0.000000e+000
    outer loop
      vertex  5.660708e+000  0.000000e+000  7.539505e+000
      vertex  5.074922e+000  0.000000e+000  8.953718e+000
      vertex  4.660708e+000  0.000000e+000  9.271556e+000
    endloop
  endfacet
  facet normal  -0.000000e+000 -1.000000e+000  -0.000000e+000
    outer loop
      vertex  5.660708e+000  0.000000e+000  7.539505e+000
      vertex  4.660708e+000  0.000000e+000  9.271556e+000
      vertex  4.178347e+000  0.000000e+000  9.471356e+000
    endloop
  endfacet
  facet normal  -0.000000e+000 -9.999999e-001  -0.000000e+000
    outer loop
      vertex  5.660708e+000  0.000000e+000  7.539505e+000
      vertex  4.178347e+000  0.000000e+000  9.471356e+000
      vertex  3.660709e+000  0.000000e+000  9.539505e+000
    endloop
  endfacet
  facet normal  0.000000e+000 -1.000000e+000  -0.000000e+000
    outer loop
      vertex  5.660708e+000  0.000000e+000  7.539505e+000
      vertex  3.660709e+000  0.000000e+000  9.539505e+000
      vertex -4.402404e-001  0.000000e+000  5.771693e+000
    endloop
  endfacet
  facet normal  0.000000e+000 -1.000000e+000  0.000000e+000
    outer loop
      vertex  5.660708e+000  0.000000e+000  7.539505e+000
      vertex -4.402404e-001  0.000000e+000  5.771693e+000
      vertex  3.768489e-002  0.000000e+000  5.631361e+000
    endloop
  endfacet
  facet normal  0.000000e+000 -1.000000e+000  0.000000e+000
    outer loop
      vertex  5.660708e+000  0.000000e+000  7.539505e+000
      vertex  3.768489e-002  0.000000e+000  5.631361e+000
      vertex  4.567149e-001  0.000000e+000  5.362067e+000
    endloop
  endfacet
  facet normal  0.000000e+000 -1.000000e+000  0.000000e+000
    outer loop
      vertex  5.660708e+000  0.000000e+000  7.539505e+000
      vertex  4.567149e-001  0.000000e+000  5.362067e+000
      vertex  7.829023e-001  0.000000e+000  4.985626e+000
    endloop
  endfacet
  facet normal  0.000000e+000 -1.000000e+000  0.000000e+000
    outer loop
      vertex  5.660708e+000  0.000000e+000  7.539505e+000
      vertex  7.829023e-001  0.000000e+000  4.985626e+000
      vertex  9.898213e-001  0.000000e+000  4.532537e+000
    endloop
  endfacet
  facet normal  0.000000e+000 -9.999999e-001  0.000000e+000
    outer loop
      vertex  5.660708e+000  0.000000e+000  7.539505e+000
      vertex  9.898213e-001  0.000000e+000  4.532537e+000
      vertex  5.660708e+000  0.000000e+000 -9.460495e+000
    endloop
  endfacet
  facet normal  0.000000e+000 -9.999999e-001  0.000000e+000
    outer loop
      vertex -9.383423e-001  0.000000e+000  5.771693e+000
      vertex -4.402404e-001  0.000000e+000  5.771693e+000
      vertex  3.660709e+000  0.000000e+000  9.539505e+000
    endloop
  endfacet
  facet normal  -0.000000e+000 -1.000000e+000  0.000000e+000
    outer loop
      vertex -9.383423e-001  0.000000e+000  5.771693e+000
      vertex  3.660709e+000  0.000000e+000  9.539505e+000
      vertex -5.039291e+000  0.000000e+000  9.539505e+000
    endloop
  endfacet
  facet normal  0.000000e+000 -1.000000e+000  -0.000000e+000
    outer loop
      vertex -9.383423e-001  0.000000e+000  5.771693e+000
      vertex -5.039291e+000  0.000000e+000  9.539505e+000
      vertex -5.556930e+000  0.000000e+000  9.471356e+000
    endloop
  endfacet
  facet normal  0.000000e+000 -1.000000e+000  -0.000000e+000
    outer loop
      vertex -9.383423e-001  0.000000e+000  5.771693e+000
      vertex -5.556930e+000  0.000000e+000  9.471356e+000
      vertex -6.039291e+000  0.000000e+000  9.271556e+000
    endloop
  endfacet
  facet normal  0.000000e+000 -1.000000e+000  -0.000000e+000
    outer loop
      vertex -9.383423e-001  0.000000e+000  5.771693e+000
      vertex -6.039291e+000  0.000000e+000  9.271556e+000
      vertex -6.453505e+000  0.000000e+000  8.953718e+000
    endloop
  endfacet
  facet normal  0.000000e+000 -9.999999e-001  -0.000000e+000
    outer loop
      vertex -9.383423e-001  0.000000e+000  5.771693e+000
      vertex -6.453505e+000  0.000000e+000  8.953718e+000
      vertex -6.771342e+000  0.000000e+000  8.539505e+000
    endloop
  endfacet
  facet normal  0.000000e+000 -1.000000e+000  -0.000000e+000
    outer loop
      vertex -9.383423e-001  0.000000e+000  5.771693e+000
      vertex -6.771342e+000  0.000000e+000  8.539505e+000
      vertex -6.971143e+000  0.000000e+000  8.057143e+000
    endloop
  endfacet
  facet normal  0.000000e+000 -9.999999e-001  -0.000000e+000
    outer loop
      vertex -9.383423e-001  0.000000e+000  5.771693e+000
      vertex -6.971143e+000  0.000000e+000  8.057143e+000
      vertex -7.039291e+000  0.000000e+000  7.539505e+000
    endloop
  endfacet
  facet normal  -0.000000e+000 -1.000000e+000  0.000000e+000
    outer loop
      vertex -7.039291e+000  0.000000e+000 -9.460495e+000
      vertex -9.383423e-001  0.000000e+000 -7.692683e+000
      vertex -1.416268e+000  0.000000e+000 -7.552351e+000
    endloop
  endfacet
  facet normal  -0.000000e+000 -1.000000e+000  0.000000e+000
    outer loop
      vertex -7.039291e+000  0.000000e+000 -9.460495e+000
      vertex -1.416268e+000  0.000000e+000 -7.552351e+000
      vertex -1.835298e+000  0.000000e+000 -7.283057e+000
    endloop
  endfacet
  facet normal  -0.000000e+000 -1.000000e+000  0.000000e+000
    outer loop
      vertex -7.039291e+000  0.000000e+000 -9.460495e+000
      vertex -1.835298e+000  0.000000e+000 -7.283057e+000
      vertex -2.161485e+000  0.000000e+000 -6.906616e+000
    endloop
  endfacet
  facet normal  -0.000000e+000 -9.999999e-001  0.000000e+000
    outer loop
      vertex -7.039291e+000  0.000000e+000 -9.460495e+000
      vertex -2.161485e+000  0.000000e+000 -6.906616e+000
      vertex -2.368404e+000  0.000000e+000 -6.453527e+000
    endloop
  endfacet
  facet normal  -0.000000e+000 -1.000000e+000  0.000000e+000
    outer loop
      vertex -7.039291e+000  0.000000e+000 -9.460495e+000
      vertex -2.368404e+000  0.000000e+000 -6.453527e+000
      vertex -2.439291e+000  0.000000e+000 -5.960495e+000
    endloop
  endfacet
  facet normal  -0.000000e+000 -1.000000e+000  0.000000e+000
    outer loop
      vertex -7.039291e+000  0.000000e+000 -9.460495e+000
      vertex -2.439291e+000  0.000000e+000 -5.960495e+000
      vertex -2.368404e+000  0.000000e+000 -5.467463e+000
    endloop
  endfacet
  facet normal  -0.000000e+000 -9.999999e-001  0.000000e+000
    outer loop
      vertex -7.039291e+000  0.000000e+000 -9.460495e+000
      vertex -2.368404e+000  0.000000e+000 -5.467463e+000
      vertex -2.161485e+000  0.000000e+000 -5.014374e+000
    endloop
  endfacet
  facet normal  -0.000000e+000 -1.000000e+000  0.000000e+000
    outer loop
      vertex -7.039291e+000  0.000000e+000 -9.460495e+000
      vertex -2.161485e+000  0.000000e+000 -5.014374e+000
      vertex -1.835298e+000  0.000000e+000 -4.637933e+000
    endloop
  endfacet
  facet normal  -0.000000e+000 -1.000000e+000  0.000000e+000
    outer loop
      vertex -7.039291e+000  0.000000e+000 -9.460495e+000
      vertex -1.835298e+000  0.000000e+000 -4.637933e+000
      vertex -9.383423e-001  0.000000e+000  2.307317e+000
    endloop
  endfacet
  facet normal  -0.000000e+000 -1.000000e+000  0.000000e+000
    outer loop
      vertex -7.039291e+000  0.000000e+000 -9.460495e+000
      vertex -9.383423e-001  0.000000e+000  2.307317e+000
      vertex -1.416268e+000  0.000000e+000  2.447649e+000
    endloop
  endfacet
  facet normal  -0.000000e+000 -9.999999e-001  0.000000e+000
    outer loop
      vertex -7.039291e+000  0.000000e+000 -9.460495e+000
      vertex -1.416268e+000  0.000000e+000  2.447649e+000
      vertex -1.835298e+000  0.000000e+000  2.716943e+000
    endloop
  endfacet
  facet normal  -0.000000e+000 -1.000000e+000  0.000000e+000
    outer loop
      vertex -7.039291e+000  0.000000e+000 -9.460495e+000
      vertex -1.835298e+000  0.000000e+000  2.716943e+000
      vertex -2.161485e+000  0.000000e+000  3.093384e+000
    endloop
  endfacet
  facet normal  -0.000000e+000 -1.000000e+000  0.000000e+000
    outer loop
      vertex -7.039291e+000  0.000000e+000 -9.460495e+000
      vertex -2.161485e+000  0.000000e+000  3.093384e+000
      vertex -2.368404e+000  0.000000e+000  3.546473e+000
    endloop
  endfacet
  facet normal  -0.000000e+000 -1.000000e+000  0.000000e+000
    outer loop
      vertex -7.039291e+000  0.000000e+000 -9.460495e+000
      vertex -2.368404e+000  0.000000e+000  3.546473e+000
      vertex -2.439291e+000  0.000000e+000  4.039505e+000
    endloop
  endfacet
  facet normal  -0.000000e+000 -1.000000e+000  0.000000e+000
    outer loop
      vertex -7.039291e+000  0.000000e+000 -9.460495e+000
      vertex -2.439291e+000  0.000000e+000  4.039505e+000
      vertex -2.368404e+000  0.000000e+000  4.532537e+000
    endloop
  endfacet
  facet normal  0.000000e+000 -9.999999e-001  0.000000e+000
    outer loop
      vertex -7.039291e+000  0.000000e+000  7.539505e+000
      vertex -7.039291e+000  0.000000e+000 -9.460495e+000
      vertex -2.368404e+000  0.000000e+000  4.532537e+000
    endloop
  endfacet
  facet normal  0.000000e+000 -9.999999e-001  0.000000e+000
    outer loop
      vertex -7.039291e+000  0.000000e+000  7.539505e+000
      vertex -2.368404e+000  0.000000e+000  4.532537e+000
      vertex -2.161485e+000  0.000000e+000  4.985626e+000
    endloop
  endfacet
  facet normal  0.000000e+000 -1.000000e+000  0.000000e+000
    outer loop
      vertex -7.039291e+000  0.000000e+000  7.539505e+000
      vertex -2.161485e+000  0.000000e+000  4.985626e+000
      vertex -1.835298e+000  0.000000e+000  5.362067e+000
    endloop
  endfacet
  facet normal  0.000000e+000 -1.000000e+000  0.000000e+000
    outer loop
      vertex -7.039291e+000  0.000000e+000  7.539505e+000
      vertex -1.835298e+000  0.000000e+000  5.362067e+000
      vertex -1.416268e+000  0.000000e+000  5.631361e+000
    endloop
  endfacet
  facet normal  0.000000e+000 -1.000000e+000  0.000000e+000
    outer loop
      vertex -7.039291e+000  0.000000e+000  7.539505e+000
      vertex -1.416268e+000  0.000000e+000  5.631361e+000
      vertex -9.383423e-001  0.000000e+000  5.771693e+000
    endloop
  endfacet
  facet normal  -0.000000e+000 -1.000000e+000  0.000000e+000
    outer loop
      vertex -1.416268e+000  0.000000e+000 -4.368639e+000
      vertex -9.383423e-001  0.000000e+000 -4.228307e+000
      vertex -9.383423e-001  0.000000e+000  2.307317e+000
    endloop
  endfacet
  facet normal  0.000000e+000 -1.000000e+000  0.000000e+000
    outer loop
      vertex -9.383423e-001  0.000000e+000  2.307317e+000
      vertex -9.383423e-001  0.000000e+000 -4.228307e+000
      vertex -4.402404e-001  0.000000e+000 -4.228307e+000
    endloop
  endfacet
  facet normal  0.000000e+000 -1.000000e+000  0.000000e+000
    outer loop
      vertex -9.383423e-001  0.000000e+000  2.307317e+000
      vertex -4.402404e-001  0.000000e+000 -4.228307e+000
      vertex -4.402404e-001  0.000000e+000  2.307317e+000
    endloop
  endfacet
  facet normal -1.000000e+000  0.000000e+000  0.000000e+000
    outer loop
      vertex -7.039291e+000  4.000000e+000 -9.460495e+000
      vertex -7.039291e+000  0.000000e+000 -9.460495e+000
      vertex -7.039291e+000  4.000000e+000  7.539505e+000
    endloop
  endfacet
  facet normal -1.000000e+000  -0.000000e+000  0.000000e+000
    outer loop
      vertex -7.039291e+000  4.000000e+000  7.539505e+000
      vertex -7.039291e+000  0.000000e+000 -9.460495e+000
      vertex -7.039291e+000  0.000000e+000  7.539505e+000
    endloop
  endfacet
  facet normal  -0.000000e+000  0.000000e+000 -1.000000e+000
    outer loop
      vertex -5.039291e+000  4.000000e+000 -1.146049e+001
      vertex  3.660709e+000  4.000000e+000 -1.146049e+001
      vertex -5.039291e+000  0.000000e+000 -1.146049e+001
    endloop
  endfacet
  facet normal  0.000000e+000  0.000000e+000 -1.000000e+000
    outer loop
      vertex -5.039291e+000  0.000000e+000 -1.146049e+001
      vertex  3.660709e+000  4.000000e+000 -1.146049e+001
      vertex  3.660709e+000  0.000000e+000 -1.146049e+001
    endloop
  endfacet
  facet normal  0.000000e+000  1.000000e+000  0.000000e+000
    outer loop
      vertex -1.416268e+000  4.000000e+000 -4.368639e+000
      vertex -1.835298e+000  4.000000e+000 -4.637933e+000
      vertex -9.383423e-001  4.000000e+000  2.307317e+000
    endloop
  endfacet
  facet normal  0.000000e+000  1.000000e+000  0.000000e+000
    outer loop
      vertex -4.402404e-001  4.000000e+000 -4.228307e+000
      vertex -4.402404e-001  4.000000e+000  2.307317e+000
      vertex  3.768489e-002  4.000000e+000 -4.368639e+000
    endloop
  endfacet
  facet normal  -0.000000e+000  1.000000e+000  -0.000000e+000
    outer loop
      vertex  4.567149e-001  4.000000e+000 -4.637933e+000
      vertex  3.768489e-002  4.000000e+000 -4.368639e+000
      vertex -4.402404e-001  4.000000e+000  2.307317e+000
    endloop
  endfacet
  facet normal  0.000000e+000  1.000000e+000  -0.000000e+000
    outer loop
      vertex  5.660708e+000  4.000000e+000 -9.460495e+000
      vertex  5.592560e+000  4.000000e+000 -9.978133e+000
      vertex  5.392759e+000  4.000000e+000 -1.046049e+001
    endloop
  endfacet
  facet normal  0.000000e+000  1.000000e+000  -0.000000e+000
    outer loop
      vertex  5.660708e+000  4.000000e+000 -9.460495e+000
      vertex  5.392759e+000  4.000000e+000 -1.046049e+001
      vertex  5.074922e+000  4.000000e+000 -1.087471e+001
    endloop
  endfacet
  facet normal  0.000000e+000  9.999999e-001  -0.000000e+000
    outer loop
      vertex  5.660708e+000  4.000000e+000 -9.460495e+000
      vertex  5.074922e+000  4.000000e+000 -1.087471e+001
      vertex  4.660708e+000  4.000000e+000 -1.119255e+001
    endloop
  endfacet
  facet normal  0.000000e+000  1.000000e+000  -0.000000e+000
    outer loop
      vertex  5.660708e+000  4.000000e+000 -9.460495e+000
      vertex  4.660708e+000  4.000000e+000 -1.119255e+001
      vertex  4.178347e+000  4.000000e+000 -1.139235e+001
    endloop
  endfacet
  facet normal  0.000000e+000  9.999999e-001  -0.000000e+000
    outer loop
      vertex  5.660708e+000  4.000000e+000 -9.460495e+000
      vertex  4.178347e+000  4.000000e+000 -1.139235e+001
      vertex  3.660709e+000  4.000000e+000 -1.146049e+001
    endloop
  endfacet
  facet normal  0.000000e+000  1.000000e+000  -0.000000e+000
    outer loop
      vertex  5.660708e+000  4.000000e+000 -9.460495e+000
      vertex  3.660709e+000  4.000000e+000 -1.146049e+001
      vertex -4.402404e-001  4.000000e+000 -7.692683e+000
    endloop
  endfacet
  facet normal  -0.000000e+000  1.000000e+000  0.000000e+000
    outer loop
      vertex  5.660708e+000  4.000000e+000 -9.460495e+000
      vertex -4.402404e-001  4.000000e+000 -7.692683e+000
      vertex  3.768489e-002  4.000000e+000 -7.552351e+000
    endloop
  endfacet
  facet normal  -0.000000e+000  1.000000e+000  0.000000e+000
    outer loop
      vertex  5.660708e+000  4.000000e+000 -9.460495e+000
      vertex  3.768489e-002  4.000000e+000 -7.552351e+000
      vertex  4.567149e-001  4.000000e+000 -7.283057e+000
    endloop
  endfacet
  facet normal  -0.000000e+000  1.000000e+000  0.000000e+000
    outer loop
      vertex  5.660708e+000  4.000000e+000 -9.460495e+000
      vertex  4.567149e-001  4.000000e+000 -7.283057e+000
      vertex  7.829023e-001  4.000000e+000 -6.906616e+000
    endloop
  endfacet
  facet normal  -0.000000e+000  1.000000e+000  0.000000e+000
    outer loop
      vertex  5.660708e+000  4.000000e+000 -9.460495e+000
      vertex  7.829023e-001  4.000000e+000 -6.906616e+000
      vertex  9.898213e-001  4.000000e+000 -6.453527e+000
    endloop
  endfacet
  facet normal  -0.000000e+000  1.000000e+000  0.000000e+000
    outer loop
      vertex  5.660708e+000  4.000000e+000 -9.460495e+000
      vertex  9.898213e-001  4.000000e+000 -6.453527e+000
      vertex  1.060709e+000  4.000000e+000 -5.960495e+000
    endloop
  endfacet
  facet normal  -0.000000e+000  1.000000e+000  -0.000000e+000
    outer loop
      vertex  5.660708e+000  4.000000e+000 -9.460495e+000
      vertex  1.060709e+000  4.000000e+000 -5.960495e+000
      vertex  9.898213e-001  4.000000e+000 -5.467463e+000
    endloop
  endfacet
  facet normal  -0.000000e+000  1.000000e+000  -0.000000e+000
    outer loop
      vertex  5.660708e+000  4.000000e+000 -9.460495e+000
      vertex  9.898213e-001  4.000000e+000 -5.467463e+000
      vertex  7.829023e-001  4.000000e+000 -5.014374e+000
    endloop
  endfacet
  facet normal  -0.000000e+000  9.999999e-001  -0.000000e+000
    outer loop
      vertex  5.660708e+000  4.000000e+000 -9.460495e+000
      vertex  7.829023e-001  4.000000e+000 -5.014374e+000
      vertex  4.567149e-001  4.000000e+000 -4.637933e+000
    endloop
  endfacet
  facet normal  -0.000000e+000  1.000000e+000  -0.000000e+000
    outer loop
      vertex  5.660708e+000  4.000000e+000 -9.460495e+000
      vertex  4.567149e-001  4.000000e+000 -4.637933e+000
      vertex -4.402404e-001  4.000000e+000  2.307317e+000
    endloop
  endfacet
  facet normal  -0.000000e+000  1.000000e+000  0.000000e+000
    outer loop
      vertex  5.660708e+000  4.000000e+000 -9.460495e+000
      vertex -4.402404e-001  4.000000e+000  2.307317e+000
      vertex  3.768489e-002  4.000000e+000  2.447649e+000
    endloop
  endfacet
  facet normal  -0.000000e+000  1.000000e+000  0.000000e+000
    outer loop
      vertex  5.660708e+000  4.000000e+000 -9.460495e+000
      vertex  3.768489e-002  4.000000e+000  2.447649e+000
      vertex  4.567149e-001  4.000000e+000  2.716943e+000
    endloop
  endfacet
  facet normal  -0.000000e+000  1.000000e+000  0.000000e+000
    outer loop
      vertex  5.660708e+000  4.000000e+000 -9.460495e+000
      vertex  4.567149e-001  4.000000e+000  2.716943e+000
      vertex  7.829023e-001  4.000000e+000  3.093384e+000
    endloop
  endfacet
  facet normal  -0.000000e+000  1.000000e+000  0.000000e+000
    outer loop
      vertex  5.660708e+000  4.000000e+000 -9.460495e+000
      vertex  7.829023e-001  4.000000e+000  3.093384e+000
      vertex  9.898213e-001  4.000000e+000  3.546473e+000
    endloop
  endfacet
  facet normal  -0.000000e+000  1.000000e+000  0.000000e+000
    outer loop
      vertex  5.660708e+000  4.000000e+000 -9.460495e+000
      vertex  9.898213e-001  4.000000e+000  3.546473e+000
      vertex  1.060709e+000  4.000000e+000  4.039505e+000
    endloop
  endfacet
  facet normal  -0.000000e+000  1.000000e+000  -0.000000e+000
    outer loop
      vertex  5.660708e+000  4.000000e+000 -9.460495e+000
      vertex  1.060709e+000  4.000000e+000  4.039505e+000
      vertex  9.898213e-001  4.000000e+000  4.532537e+000
    endloop
  endfacet
  facet normal  0.000000e+000  9.999999e-001  0.000000e+000
    outer loop
      vertex -9.383423e-001  4.000000e+000 -7.692683e+000
      vertex -4.402404e-001  4.000000e+000 -7.692683e+000
      vertex  3.660709e+000  4.000000e+000 -1.146049e+001
    endloop
  endfacet
  facet normal  0.000000e+000  1.000000e+000  0.000000e+000
    outer loop
      vertex -9.383423e-001  4.000000e+000 -7.692683e+000
      vertex  3.660709e+000  4.000000e+000 -1.146049e+001
      vertex -5.039291e+000  4.000000e+000 -1.146049e+001
    endloop
  endfacet
  facet normal  0.000000e+000  1.000000e+000  -0.000000e+000
    outer loop
      vertex -9.383423e-001  4.000000e+000 -7.692683e+000
      vertex -5.039291e+000  4.000000e+000 -1.146049e+001
      vertex -5.556930e+000  4.000000e+000 -1.139235e+001
    endloop
  endfacet
  facet normal  0.000000e+000  1.000000e+000  -0.000000e+000
    outer loop
      vertex -9.383423e-001  4.000000e+000 -7.692683e+000
      vertex -5.556930e+000  4.000000e+000 -1.139235e+001
      vertex -6.039291e+000  4.000000e+000 -1.119255e+001
    endloop
  endfacet
  facet normal  0.000000e+000  1.000000e+000  -0.000000e+000
    outer loop
      vertex -9.383423e-001  4.000000e+000 -7.692683e+000
      vertex -6.039291e+000  4.000000e+000 -1.119255e+001
      vertex -6.453505e+000  4.000000e+000 -1.087471e+001
    endloop
  endfacet
  facet normal  0.000000e+000  9.999999e-001  -0.000000e+000
    outer loop
      vertex -9.383423e-001  4.000000e+000 -7.692683e+000
      vertex -6.453505e+000  4.000000e+000 -1.087471e+001
      vertex -6.771342e+000  4.000000e+000 -1.046049e+001
    endloop
  endfacet
  facet normal  0.000000e+000  1.000000e+000  -0.000000e+000
    outer loop
      vertex -9.383423e-001  4.000000e+000 -7.692683e+000
      vertex -6.771342e+000  4.000000e+000 -1.046049e+001
      vertex -6.971143e+000  4.000000e+000 -9.978133e+000
    endloop
  endfacet
  facet normal  0.000000e+000  9.999999e-001  -0.000000e+000
    outer loop
      vertex -9.383423e-001  4.000000e+000 -7.692683e+000
      vertex -6.971143e+000  4.000000e+000 -9.978133e+000
      vertex -7.039291e+000  4.000000e+000 -9.460495e+000
    endloop
  endfacet
  facet normal  0.000000e+000  9.999999e-001  -0.000000e+000
    outer loop
      vertex  5.660708e+000  4.000000e+000  7.539505e+000
      vertex  5.660708e+000  4.000000e+000 -9.460495e+000
      vertex  9.898213e-001  4.000000e+000  4.532537e+000
    endloop
  endfacet
  facet normal  0.000000e+000  1.000000e+000  -0.000000e+000
    outer loop
      vertex  5.660708e+000  4.000000e+000  7.539505e+000
      vertex  9.898213e-001  4.000000e+000  4.532537e+000
      vertex  7.829023e-001  4.000000e+000  4.985626e+000
    endloop
  endfacet
  facet normal  0.000000e+000  1.000000e+000  -0.000000e+000
    outer loop
      vertex  5.660708e+000  4.000000e+000  7.539505e+000
      vertex  7.829023e-001  4.000000e+000  4.985626e+000
      vertex  4.567149e-001  4.000000e+000  5.362067e+000
    endloop
  endfacet
  facet normal  0.000000e+000  1.000000e+000  -0.000000e+000
    outer loop
      vertex  5.660708e+000  4.000000e+000  7.539505e+000
      vertex  4.567149e-001  4.000000e+000  5.362067e+000
      vertex  3.768489e-002  4.000000e+000  5.631361e+000
    endloop
  endfacet
  facet normal  0.000000e+000  1.000000e+000  -0.000000e+000
    outer loop
      vertex  5.660708e+000  4.000000e+000  7.539505e+000
      vertex  3.768489e-002  4.000000e+000  5.631361e+000
      vertex -4.402404e-001  4.000000e+000  5.771693e+000
    endloop
  endfacet
  facet normal  0.000000e+000  1.000000e+000  0.000000e+000
    outer loop
      vertex  5.660708e+000  4.000000e+000  7.539505e+000
      vertex -4.402404e-001  4.000000e+000  5.771693e+000
      vertex  3.660709e+000  4.000000e+000  9.539505e+000
    endloop
  endfacet
  facet normal  0.000000e+000  9.999999e-001  0.000000e+000
    outer loop
      vertex  5.660708e+000  4.000000e+000  7.539505e+000
      vertex  3.660709e+000  4.000000e+000  9.539505e+000
      vertex  4.178347e+000  4.000000e+000  9.471356e+000
    endloop
  endfacet
  facet normal  0.000000e+000  1.000000e+000  0.000000e+000
    outer loop
      vertex  5.660708e+000  4.000000e+000  7.539505e+000
      vertex  4.178347e+000  4.000000e+000  9.471356e+000
      vertex  4.660708e+000  4.000000e+000  9.271556e+000
    endloop
  endfacet
  facet normal  0.000000e+000  9.999999e-001  0.000000e+000
    outer loop
      vertex  5.660708e+000  4.000000e+000  7.539505e+000
      vertex  4.660708e+000  4.000000e+000  9.271556e+000
      vertex  5.074922e+000  4.000000e+000  8.953718e+000
    endloop
  endfacet
  facet normal  0.000000e+000  1.000000e+000  0.000000e+000
    outer loop
      vertex  5.660708e+000  4.000000e+000  7.539505e+000
      vertex  5.074922e+000  4.000000e+000  8.953718e+000
      vertex  5.392759e+000  4.000000e+000  8.539505e+000
    endloop
  endfacet
  facet normal  0.000000e+000  1.000000e+000  0.000000e+000
    outer loop
      vertex  5.660708e+000  4.000000e+000  7.539505e+000
      vertex  5.392759e+000  4.000000e+000  8.539505e+000
      vertex  5.592560e+000  4.000000e+000  8.057143e+000
    endloop
  endfacet
  facet normal  -0.000000e+000  1.000000e+000  0.000000e+000
    outer loop
      vertex -9.383423e-001  4.000000e+000  5.771693e+000
      vertex -7.039291e+000  4.000000e+000  7.539505e+000
      vertex -6.971143e+000  4.000000e+000  8.057143e+000
    endloop
  endfacet
  facet normal  -0.000000e+000  9.999999e-001  0.000000e+000
    outer loop
      vertex -9.383423e-001  4.000000e+000  5.771693e+000
      vertex -6.971143e+000  4.000000e+000  8.057143e+000
      vertex -6.771342e+000  4.000000e+000  8.539505e+000
    endloop
  endfacet
  facet normal  -0.000000e+000  1.000000e+000  0.000000e+000
    outer loop
      vertex -9.383423e-001  4.000000e+000  5.771693e+000
      vertex -6.771342e+000  4.000000e+000  8.539505e+000
      vertex -6.453505e+000  4.000000e+000  8.953718e+000
    endloop
  endfacet
  facet normal  -0.000000e+000  1.000000e+000  0.000000e+000
    outer loop
      vertex -9.383423e-001  4.000000e+000  5.771693e+000
      vertex -6.453505e+000  4.000000e+000  8.953718e+000
      vertex -6.039291e+000  4.000000e+000  9.271556e+000
    endloop
  endfacet
  facet normal  -0.000000e+000  1.000000e+000  0.000000e+000
    outer loop
      vertex -9.383423e-001  4.000000e+000  5.771693e+000
      vertex -6.039291e+000  4.000000e+000  9.271556e+000
      vertex -5.556930e+000  4.000000e+000  9.471356e+000
    endloop
  endfacet
  facet normal  -0.000000e+000  1.000000e+000  0.000000e+000
    outer loop
      vertex -9.383423e-001  4.000000e+000  5.771693e+000
      vertex -5.556930e+000  4.000000e+000  9.471356e+000
      vertex -5.039291e+000  4.000000e+000  9.539505e+000
    endloop
  endfacet
  facet normal  -0.000000e+000  1.000000e+000  0.000000e+000
    outer loop
      vertex -9.383423e-001  4.000000e+000  5.771693e+000
      vertex -5.039291e+000  4.000000e+000  9.539505e+000
      vertex  3.660709e+000  4.000000e+000  9.539505e+000
    endloop
  endfacet
  facet normal  0.000000e+000  9.999999e-001  0.000000e+000
    outer loop
      vertex -9.383423e-001  4.000000e+000  5.771693e+000
      vertex  3.660709e+000  4.000000e+000  9.539505e+000
      vertex -4.402404e-001  4.000000e+000  5.771693e+000
    endloop
  endfacet
  facet normal  0.000000e+000  1.000000e+000  0.000000e+000
    outer loop
      vertex -7.039291e+000  4.000000e+000 -9.460495e+000
      vertex -2.368404e+000  4.000000e+000  4.532537e+000
      vertex -2.439291e+000  4.000000e+000  4.039505e+000
    endloop
  endfacet
  facet normal  0.000000e+000  1.000000e+000  0.000000e+000
    outer loop
      vertex -7.039291e+000  4.000000e+000 -9.460495e+000
      vertex -2.439291e+000  4.000000e+000  4.039505e+000
      vertex -2.368404e+000  4.000000e+000  3.546473e+000
    endloop
  endfacet
  facet normal  0.000000e+000  1.000000e+000  0.000000e+000
    outer loop
      vertex -7.039291e+000  4.000000e+000 -9.460495e+000
      vertex -2.368404e+000  4.000000e+000  3.546473e+000
      vertex -2.161485e+000  4.000000e+000  3.093384e+000
    endloop
  endfacet
  facet normal  0.000000e+000  9.999999e-001  0.000000e+000
    outer loop
      vertex -7.039291e+000  4.000000e+000 -9.460495e+000
      vertex -2.161485e+000  4.000000e+000  3.093384e+000
      vertex -1.835298e+000  4.000000e+000  2.716943e+000
    endloop
  endfacet
  facet normal  0.000000e+000  9.999999e-001  0.000000e+000
    outer loop
      vertex -7.039291e+000  4.000000e+000 -9.460495e+000
      vertex -1.835298e+000  4.000000e+000  2.716943e+000
      vertex -1.416268e+000  4.000000e+000  2.447649e+000
    endloop
  endfacet
  facet normal  0.000000e+000  1.000000e+000  0.000000e+000
    outer loop
      vertex -7.039291e+000  4.000000e+000 -9.460495e+000
      vertex -1.416268e+000  4.000000e+000  2.447649e+000
      vertex -9.383423e-001  4.000000e+000  2.307317e+000
    endloop
  endfacet
  facet normal  0.000000e+000  1.000000e+000  0.000000e+000
    outer loop
      vertex -7.039291e+000  4.000000e+000 -9.460495e+000
      vertex -9.383423e-001  4.000000e+000  2.307317e+000
      vertex -1.835298e+000  4.000000e+000 -4.637933e+000
    endloop
  endfacet
  facet normal  0.000000e+000  1.000000e+000  0.000000e+000
    outer loop
      vertex -7.039291e+000  4.000000e+000 -9.460495e+000
      vertex -1.835298e+000  4.000000e+000 -4.637933e+000
      vertex -2.161485e+000  4.000000e+000 -5.014374e+000
    endloop
  endfacet
  facet normal  0.000000e+000  1.000000e+000  0.000000e+000
    outer loop
      vertex -7.039291e+000  4.000000e+000 -9.460495e+000
      vertex -2.161485e+000  4.000000e+000 -5.014374e+000
      vertex -2.368404e+000  4.000000e+000 -5.467463e+000
    endloop
  endfacet
  facet normal  0.000000e+000  1.000000e+000  0.000000e+000
    outer loop
      vertex -7.039291e+000  4.000000e+000 -9.460495e+000
      vertex -2.368404e+000  4.000000e+000 -5.467463e+000
      vertex -2.439291e+000  4.000000e+000 -5.960495e+000
    endloop
  endfacet
  facet normal  0.000000e+000  1.000000e+000  0.000000e+000
    outer loop
      vertex -7.039291e+000  4.000000e+000 -9.460495e+000
      vertex -2.439291e+000  4.000000e+000 -5.960495e+000
      vertex -2.368404e+000  4.000000e+000 -6.453527e+000
    endloop
  endfacet
  facet normal  0.000000e+000  9.999999e-001  0.000000e+000
    outer loop
      vertex -7.039291e+000  4.000000e+000 -9.460495e+000
      vertex -2.368404e+000  4.000000e+000 -6.453527e+000
      vertex -2.161485e+000  4.000000e+000 -6.906616e+000
    endloop
  endfacet
  facet normal  0.000000e+000  1.000000e+000  0.000000e+000
    outer loop
      vertex -7.039291e+000  4.000000e+000 -9.460495e+000
      vertex -2.161485e+000  4.000000e+000 -6.906616e+000
      vertex -1.835298e+000  4.000000e+000 -7.283057e+000
    endloop
  endfacet
  facet normal  0.000000e+000  1.000000e+000  0.000000e+000
    outer loop
      vertex -7.039291e+000  4.000000e+000 -9.460495e+000
      vertex -1.835298e+000  4.000000e+000 -7.283057e+000
      vertex -1.416268e+000  4.000000e+000 -7.552351e+000
    endloop
  endfacet
  facet normal  0.000000e+000  1.000000e+000  0.000000e+000
    outer loop
      vertex -7.039291e+000  4.000000e+000 -9.460495e+000
      vertex -1.416268e+000  4.000000e+000 -7.552351e+000
      vertex -9.383423e-001  4.000000e+000 -7.692683e+000
    endloop
  endfacet
  facet normal  0.000000e+000  1.000000e+000  0.000000e+000
    outer loop
      vertex -7.039291e+000  4.000000e+000  7.539505e+000
      vertex -9.383423e-001  4.000000e+000  5.771693e+000
      vertex -1.416268e+000  4.000000e+000  5.631361e+000
    endloop
  endfacet
  facet normal  0.000000e+000  1.000000e+000  0.000000e+000
    outer loop
      vertex -7.039291e+000  4.000000e+000  7.539505e+000
      vertex -1.416268e+000  4.000000e+000  5.631361e+000
      vertex -1.835298e+000  4.000000e+000  5.362067e+000
    endloop
  endfacet
  facet normal  0.000000e+000  1.000000e+000  0.000000e+000
    outer loop
      vertex -7.039291e+000  4.000000e+000  7.539505e+000
      vertex -1.835298e+000  4.000000e+000  5.362067e+000
      vertex -2.161485e+000  4.000000e+000  4.985626e+000
    endloop
  endfacet
  facet normal  0.000000e+000  9.999999e-001  0.000000e+000
    outer loop
      vertex -7.039291e+000  4.000000e+000  7.539505e+000
      vertex -2.161485e+000  4.000000e+000  4.985626e+000
      vertex -2.368404e+000  4.000000e+000  4.532537e+000
    endloop
  endfacet
  facet normal  0.000000e+000  9.999999e-001  0.000000e+000
    outer loop
      vertex -7.039291e+000  4.000000e+000  7.539505e+000
      vertex -2.368404e+000  4.000000e+000  4.532537e+000
      vertex -7.039291e+000  4.000000e+000 -9.460495e+000
    endloop
  endfacet
  facet normal  0.000000e+000  1.000000e+000  -0.000000e+000
    outer loop
      vertex -4.402404e-001  4.000000e+000  2.307317e+000
      vertex -4.402404e-001  4.000000e+000 -4.228307e+000
      vertex -9.383423e-001  4.000000e+000  2.307317e+000
    endloop
  endfacet
  facet normal  0.000000e+000  1.000000e+000  0.000000e+000
    outer loop
      vertex -9.383423e-001  4.000000e+000  2.307317e+000
      vertex -4.402404e-001  4.000000e+000 -4.228307e+000
      vertex -9.383423e-001  4.000000e+000 -4.228307e+000
    endloop
  endfacet
  facet normal  0.000000e+000  1.000000e+000  -0.000000e+000
    outer loop
      vertex -9.383423e-001  4.000000e+000  2.307317e+000
      vertex -9.383423e-001  4.000000e+000 -4.228307e+000
      vertex -1.416268e+000  4.000000e+000 -4.368639e+000
    endloop
  endfacet
  facet normal -9.914449e-001  -0.000000e+000 -1.305258e-001
    outer loop
      vertex -7.039291e+000  0.000000e+000 -9.460495e+000
      vertex -7.039291e+000  4.000000e+000 -9.460495e+000
      vertex -6.971143e+000  0.000000e+000 -9.978133e+000
    endloop
  endfacet
  facet normal -9.914449e-001  0.000000e+000 -1.305258e-001
    outer loop
      vertex -6.971143e+000  0.000000e+000 -9.978133e+000
      vertex -7.039291e+000  4.000000e+000 -9.460495e+000
      vertex -6.971143e+000  4.000000e+000 -9.978133e+000
    endloop
  endfacet
  facet normal -9.238794e-001  -0.000000e+000 -3.826837e-001
    outer loop
      vertex -6.971143e+000  0.000000e+000 -9.978133e+000
      vertex -6.971143e+000  4.000000e+000 -9.978133e+000
      vertex -6.771342e+000  0.000000e+000 -1.046049e+001
    endloop
  endfacet
  facet normal -9.238794e-001  0.000000e+000 -3.826837e-001
    outer loop
      vertex -6.771342e+000  0.000000e+000 -1.046049e+001
      vertex -6.971143e+000  4.000000e+000 -9.978133e+000
      vertex -6.771342e+000  4.000000e+000 -1.046049e+001
    endloop
  endfacet
  facet normal -7.933530e-001  -0.000000e+000 -6.087617e-001
    outer loop
      vertex -6.771342e+000  0.000000e+000 -1.046049e+001
      vertex -6.771342e+000  4.000000e+000 -1.046049e+001
      vertex -6.453505e+000  0.000000e+000 -1.087471e+001
    endloop
  endfacet
  facet normal -7.933530e-001  0.000000e+000 -6.087617e-001
    outer loop
      vertex -6.453505e+000  0.000000e+000 -1.087471e+001
      vertex -6.771342e+000  4.000000e+000 -1.046049e+001
      vertex -6.453505e+000  4.000000e+000 -1.087471e+001
    endloop
  endfacet
  facet normal -6.087619e-001  -0.000000e+000 -7.933530e-001
    outer loop
      vertex -6.453505e+000  0.000000e+000 -1.087471e+001
      vertex -6.453505e+000  4.000000e+000 -1.087471e+001
      vertex -6.039291e+000  0.000000e+000 -1.119255e+001
    endloop
  endfacet
  facet normal -6.087619e-001  0.000000e+000 -7.933530e-001
    outer loop
      vertex -6.039291e+000  0.000000e+000 -1.119255e+001
      vertex -6.453505e+000  4.000000e+000 -1.087471e+001
      vertex -6.039291e+000  4.000000e+000 -1.119255e+001
    endloop
  endfacet
  facet normal -3.826829e-001  -0.000000e+000 -9.238798e-001
    outer loop
      vertex -6.039291e+000  0.000000e+000 -1.119255e+001
      vertex -6.039291e+000  4.000000e+000 -1.119255e+001
      vertex -5.556930e+000  0.000000e+000 -1.139235e+001
    endloop
  endfacet
  facet normal -3.826829e-001  0.000000e+000 -9.238798e-001
    outer loop
      vertex -5.556930e+000  0.000000e+000 -1.139235e+001
      vertex -6.039291e+000  4.000000e+000 -1.119255e+001
      vertex -5.556930e+000  4.000000e+000 -1.139235e+001
    endloop
  endfacet
  facet normal -1.305267e-001  -0.000000e+000 -9.914448e-001
    outer loop
      vertex -5.556930e+000  0.000000e+000 -1.139235e+001
      vertex -5.556930e+000  4.000000e+000 -1.139235e+001
      vertex -5.039291e+000  0.000000e+000 -1.146049e+001
    endloop
  endfacet
  facet normal -1.305267e-001  0.000000e+000 -9.914448e-001
    outer loop
      vertex -5.039291e+000  0.000000e+000 -1.146049e+001
      vertex -5.556930e+000  4.000000e+000 -1.139235e+001
      vertex -5.039291e+000  4.000000e+000 -1.146049e+001
    endloop
  endfacet
  facet normal  1.000000e+000  -0.000000e+000  0.000000e+000
    outer loop
      vertex  5.660708e+000  4.000000e+000  7.539505e+000
      vertex  5.660708e+000  0.000000e+000  7.539505e+000
      vertex  5.660708e+000  4.000000e+000 -9.460495e+000
    endloop
  endfacet
  facet normal  1.000000e+000  0.000000e+000  0.000000e+000
    outer loop
      vertex  5.660708e+000  4.000000e+000 -9.460495e+000
      vertex  5.660708e+000  0.000000e+000  7.539505e+000
      vertex  5.660708e+000  0.000000e+000 -9.460495e+000
    endloop
  endfacet
  facet normal  1.305267e-001  0.000000e+000 -9.914448e-001
    outer loop
      vertex  3.660709e+000  0.000000e+000 -1.146049e+001
      vertex  3.660709e+000  4.000000e+000 -1.146049e+001
      vertex  4.178347e+000  0.000000e+000 -1.139235e+001
    endloop
  endfacet
  facet normal  1.305267e-001  0.000000e+000 -9.914448e-001
    outer loop
      vertex  4.178347e+000  0.000000e+000 -1.139235e+001
      vertex  3.660709e+000  4.000000e+000 -1.146049e+001
      vertex  4.178347e+000  4.000000e+000 -1.139235e+001
    endloop
  endfacet
  facet normal  3.826829e-001  0.000000e+000 -9.238798e-001
    outer loop
      vertex  4.178347e+000  0.000000e+000 -1.139235e+001
      vertex  4.178347e+000  4.000000e+000 -1.139235e+001
      vertex  4.660708e+000  0.000000e+000 -1.119255e+001
    endloop
  endfacet
  facet normal  3.826829e-001  0.000000e+000 -9.238798e-001
    outer loop
      vertex  4.660708e+000  0.000000e+000 -1.119255e+001
      vertex  4.178347e+000  4.000000e+000 -1.139235e+001
      vertex  4.660708e+000  4.000000e+000 -1.119255e+001
    endloop
  endfacet
  facet normal  6.087619e-001  0.000000e+000 -7.933530e-001
    outer loop
      vertex  4.660708e+000  0.000000e+000 -1.119255e+001
      vertex  4.660708e+000  4.000000e+000 -1.119255e+001
      vertex  5.074922e+000  0.000000e+000 -1.087471e+001
    endloop
  endfacet
  facet normal  6.087619e-001  0.000000e+000 -7.933530e-001
    outer loop
      vertex  5.074922e+000  0.000000e+000 -1.087471e+001
      vertex  4.660708e+000  4.000000e+000 -1.119255e+001
      vertex  5.074922e+000  4.000000e+000 -1.087471e+001
    endloop
  endfacet
  facet normal  7.933530e-001  0.000000e+000 -6.087617e-001
    outer loop
      vertex  5.074922e+000  0.000000e+000 -1.087471e+001
      vertex  5.074922e+000  4.000000e+000 -1.087471e+001
      vertex  5.392759e+000  0.000000e+000 -1.046049e+001
    endloop
  endfacet
  facet normal  7.933530e-001  0.000000e+000 -6.087617e-001
    outer loop
      vertex  5.392759e+000  0.000000e+000 -1.046049e+001
      vertex  5.074922e+000  4.000000e+000 -1.087471e+001
      vertex  5.392759e+000  4.000000e+000 -1.046049e+001
    endloop
  endfacet
  facet normal  9.238794e-001  0.000000e+000 -3.826837e-001
    outer loop
      vertex  5.392759e+000  0.000000e+000 -1.046049e+001
      vertex  5.392759e+000  4.000000e+000 -1.046049e+001
      vertex  5.592560e+000  0.000000e+000 -9.978133e+000
    endloop
  endfacet
  facet normal  9.238794e-001  0.000000e+000 -3.826837e-001
    outer loop
      vertex  5.592560e+000  0.000000e+000 -9.978133e+000
      vertex  5.392759e+000  4.000000e+000 -1.046049e+001
      vertex  5.592560e+000  4.000000e+000 -9.978133e+000
    endloop
  endfacet
  facet normal  9.914449e-001  0.000000e+000 -1.305258e-001
    outer loop
      vertex  5.592560e+000  0.000000e+000 -9.978133e+000
      vertex  5.592560e+000  4.000000e+000 -9.978133e+000
      vertex  5.660708e+000  0.000000e+000 -9.460495e+000
    endloop
  endfacet
  facet normal  9.914449e-001  0.000000e+000 -1.305258e-001
    outer loop
      vertex  5.660708e+000  0.000000e+000 -9.460495e+000
      vertex  5.592560e+000  4.000000e+000 -9.978133e+000
      vertex  5.660708e+000  4.000000e+000 -9.460495e+000
    endloop
  endfacet
  facet normal  -0.000000e+000  0.000000e+000  1.000000e+000
    outer loop
      vertex  3.660709e+000  4.000000e+000  9.539505e+000
      vertex -5.039291e+000  4.000000e+000  9.539505e+000
      vertex  3.660709e+000  0.000000e+000  9.539505e+000
    endloop
  endfacet
  facet normal  0.000000e+000  0.000000e+000  1.000000e+000
    outer loop
      vertex  3.660709e+000  0.000000e+000  9.539505e+000
      vertex -5.039291e+000  4.000000e+000  9.539505e+000
      vertex -5.039291e+000  0.000000e+000  9.539505e+000
    endloop
  endfacet
  facet normal  9.914449e-001  0.000000e+000  1.305258e-001
    outer loop
      vertex  5.660708e+000  0.000000e+000  7.539505e+000
      vertex  5.660708e+000  4.000000e+000  7.539505e+000
      vertex  5.592560e+000  0.000000e+000  8.057143e+000
    endloop
  endfacet
  facet normal  9.914449e-001  -0.000000e+000  1.305258e-001
    outer loop
      vertex  5.592560e+000  0.000000e+000  8.057143e+000
      vertex  5.660708e+000  4.000000e+000  7.539505e+000
      vertex  5.592560e+000  4.000000e+000  8.057143e+000
    endloop
  endfacet
  facet normal  9.238794e-001  0.000000e+000  3.826837e-001
    outer loop
      vertex  5.592560e+000  0.000000e+000  8.057143e+000
      vertex  5.592560e+000  4.000000e+000  8.057143e+000
      vertex  5.392759e+000  0.000000e+000  8.539505e+000
    endloop
  endfacet
  facet normal  9.238794e-001  -0.000000e+000  3.826837e-001
    outer loop
      vertex  5.392759e+000  0.000000e+000  8.539505e+000
      vertex  5.592560e+000  4.000000e+000  8.057143e+000
      vertex  5.392759e+000  4.000000e+000  8.539505e+000
    endloop
  endfacet
  facet normal  7.933530e-001  0.000000e+000  6.087617e-001
    outer loop
      vertex  5.392759e+000  0.000000e+000  8.539505e+000
      vertex  5.392759e+000  4.000000e+000  8.539505e+000
      vertex  5.074922e+000  0.000000e+000  8.953718e+000
    endloop
  endfacet
  facet normal  7.933530e-001  -0.000000e+000  6.087617e-001
    outer loop
      vertex  5.074922e+000  0.000000e+000  8.953718e+000
      vertex  5.392759e+000  4.000000e+000  8.539505e+000
      vertex  5.074922e+000  4.000000e+000  8.953718e+000
    endloop
  endfacet
  facet normal  6.087619e-001  0.000000e+000  7.933530e-001
    outer loop
      vertex  5.074922e+000  0.000000e+000  8.953718e+000
      vertex  5.074922e+000  4.000000e+000  8.953718e+000
      vertex  4.660708e+000  0.000000e+000  9.271556e+000
    endloop
  endfacet
  facet normal  6.087619e-001  -0.000000e+000  7.933530e-001
    outer loop
      vertex  4.660708e+000  0.000000e+000  9.271556e+000
      vertex  5.074922e+000  4.000000e+000  8.953718e+000
      vertex  4.660708e+000  4.000000e+000  9.271556e+000
    endloop
  endfacet
  facet normal  3.826829e-001  0.000000e+000  9.238798e-001
    outer loop
      vertex  4.660708e+000  0.000000e+000  9.271556e+000
      vertex  4.660708e+000  4.000000e+000  9.271556e+000
      vertex  4.178347e+000  0.000000e+000  9.471356e+000
    endloop
  endfacet
  facet normal  3.826829e-001  -0.000000e+000  9.238798e-001
    outer loop
      vertex  4.178347e+000  0.000000e+000  9.471356e+000
      vertex  4.660708e+000  4.000000e+000  9.271556e+000
      vertex  4.178347e+000  4.000000e+000  9.471356e+000
    endloop
  endfacet
  facet normal  1.305267e-001  0.000000e+000  9.914448e-001
    outer loop
      vertex  4.178347e+000  0.000000e+000  9.471356e+000
      vertex  4.178347e+000  4.000000e+000  9.471356e+000
      vertex  3.660709e+000  0.000000e+000  9.539505e+000
    endloop
  endfacet
  facet normal  1.305267e-001  -0.000000e+000  9.914448e-001
    outer loop
      vertex  3.660709e+000  0.000000e+000  9.539505e+000
      vertex  4.178347e+000  4.000000e+000  9.471356e+000
      vertex  3.660709e+000  4.000000e+000  9.539505e+000
    endloop
  endfacet
  facet normal -1.305267e-001  0.000000e+000  9.914448e-001
    outer loop
      vertex -5.039291e+000  0.000000e+000  9.539505e+000
      vertex -5.039291e+000  4.000000e+000  9.539505e+000
      vertex -5.556930e+000  0.000000e+000  9.471356e+000
    endloop
  endfacet
  facet normal -1.305267e-001  0.000000e+000  9.914448e-001
    outer loop
      vertex -5.556930e+000  0.000000e+000  9.471356e+000
      vertex -5.039291e+000  4.000000e+000  9.539505e+000
      vertex -5.556930e+000  4.000000e+000  9.471356e+000
    endloop
  endfacet
  facet normal -3.826829e-001  0.000000e+000  9.238798e-001
    outer loop
      vertex -5.556930e+000  0.000000e+000  9.471356e+000
      vertex -5.556930e+000  4.000000e+000  9.471356e+000
      vertex -6.039291e+000  0.000000e+000  9.271556e+000
    endloop
  endfacet
  facet normal -3.826829e-001  0.000000e+000  9.238798e-001
    outer loop
      vertex -6.039291e+000  0.000000e+000  9.271556e+000
      vertex -5.556930e+000  4.000000e+000  9.471356e+000
      vertex -6.039291e+000  4.000000e+000  9.271556e+000
    endloop
  endfacet
  facet normal -6.087619e-001  0.000000e+000  7.933530e-001
    outer loop
      vertex -6.039291e+000  0.000000e+000  9.271556e+000
      vertex -6.039291e+000  4.000000e+000  9.271556e+000
      vertex -6.453505e+000  0.000000e+000  8.953718e+000
    endloop
  endfacet
  facet normal -6.087619e-001  0.000000e+000  7.933530e-001
    outer loop
      vertex -6.453505e+000  0.000000e+000  8.953718e+000
      vertex -6.039291e+000  4.000000e+000  9.271556e+000
      vertex -6.453505e+000  4.000000e+000  8.953718e+000
    endloop
  endfacet
  facet normal -7.933530e-001  0.000000e+000  6.087617e-001
    outer loop
      vertex -6.453505e+000  0.000000e+000  8.953718e+000
      vertex -6.453505e+000  4.000000e+000  8.953718e+000
      vertex -6.771342e+000  0.000000e+000  8.539505e+000
    endloop
  endfacet
  facet normal -7.933530e-001  0.000000e+000  6.087617e-001
    outer loop
      vertex -6.771342e+000  0.000000e+000  8.539505e+000
      vertex -6.453505e+000  4.000000e+000  8.953718e+000
      vertex -6.771342e+000  4.000000e+000  8.539505e+000
    endloop
  endfacet
  facet normal -9.238794e-001  0.000000e+000  3.826837e-001
    outer loop
      vertex -6.771342e+000  0.000000e+000  8.539505e+000
      vertex -6.771342e+000  4.000000e+000  8.539505e+000
      vertex -6.971143e+000  0.000000e+000  8.057143e+000
    endloop
  endfacet
  facet normal -9.238794e-001  0.000000e+000  3.826837e-001
    outer loop
      vertex -6.971143e+000  0.000000e+000  8.057143e+000
      vertex -6.771342e+000  4.000000e+000  8.539505e+000
      vertex -6.971143e+000  4.000000e+000  8.057143e+000
    endloop
  endfacet
  facet normal -9.914449e-001  0.000000e+000  1.305258e-001
    outer loop
      vertex -6.971143e+000  0.000000e+000  8.057143e+000
      vertex -6.971143e+000  4.000000e+000  8.057143e+000
      vertex -7.039291e+000  0.000000e+000  7.539505e+000
    endloop
  endfacet
  facet normal -9.914449e-001  0.000000e+000  1.305258e-001
    outer loop
      vertex -7.039291e+000  0.000000e+000  7.539505e+000
      vertex -6.971143e+000  4.000000e+000  8.057143e+000
      vertex -7.039291e+000  4.000000e+000  7.539505e+000
    endloop
  endfacet
  facet normal  2.817329e-001  0.000000e+000 -9.594928e-001
    outer loop
      vertex -9.383423e-001  4.000000e+000 -4.228307e+000
      vertex -1.416268e+000  0.000000e+000 -4.368639e+000
      vertex -1.416268e+000  4.000000e+000 -4.368639e+000
    endloop
  endfacet
  facet normal  5.406408e-001  0.000000e+000 -8.412536e-001
    outer loop
      vertex -1.416268e+000  4.000000e+000 -4.368639e+000
      vertex -1.416268e+000  0.000000e+000 -4.368639e+000
      vertex -1.835298e+000  0.000000e+000 -4.637933e+000
    endloop
  endfacet
  facet normal  5.406408e-001  0.000000e+000 -8.412536e-001
    outer loop
      vertex -1.416268e+000  4.000000e+000 -4.368639e+000
      vertex -1.835298e+000  0.000000e+000 -4.637933e+000
      vertex -1.835298e+000  4.000000e+000 -4.637933e+000
    endloop
  endfacet
  facet normal  7.557499e-001  0.000000e+000 -6.548604e-001
    outer loop
      vertex -1.835298e+000  4.000000e+000 -4.637933e+000
      vertex -1.835298e+000  0.000000e+000 -4.637933e+000
      vertex -2.161485e+000  0.000000e+000 -5.014374e+000
    endloop
  endfacet
  facet normal  7.557499e-001  0.000000e+000 -6.548604e-001
    outer loop
      vertex -1.835298e+000  4.000000e+000 -4.637933e+000
      vertex -2.161485e+000  0.000000e+000 -5.014374e+000
      vertex -2.161485e+000  4.000000e+000 -5.014374e+000
    endloop
  endfacet
  facet normal  9.096318e-001  0.000000e+000 -4.154155e-001
    outer loop
      vertex -2.161485e+000  4.000000e+000 -5.014374e+000
      vertex -2.161485e+000  0.000000e+000 -5.014374e+000
      vertex -2.368404e+000  0.000000e+000 -5.467463e+000
    endloop
  endfacet
  facet normal  9.096318e-001  0.000000e+000 -4.154155e-001
    outer loop
      vertex -2.161485e+000  4.000000e+000 -5.014374e+000
      vertex -2.368404e+000  0.000000e+000 -5.467463e+000
      vertex -2.368404e+000  4.000000e+000 -5.467463e+000
    endloop
  endfacet
  facet normal  9.898214e-001  0.000000e+000 -1.423149e-001
    outer loop
      vertex -2.368404e+000  4.000000e+000 -5.467463e+000
      vertex -2.368404e+000  0.000000e+000 -5.467463e+000
      vertex -2.439291e+000  0.000000e+000 -5.960495e+000
    endloop
  endfacet
  facet normal  9.898214e-001  0.000000e+000 -1.423149e-001
    outer loop
      vertex -2.368404e+000  4.000000e+000 -5.467463e+000
      vertex -2.439291e+000  0.000000e+000 -5.960495e+000
      vertex -2.439291e+000  4.000000e+000 -5.960495e+000
    endloop
  endfacet
  facet normal  2.817329e-001  0.000000e+000 -9.594928e-001
    outer loop
      vertex -1.416268e+000  0.000000e+000 -4.368639e+000
      vertex -9.383423e-001  4.000000e+000 -4.228307e+000
      vertex -9.383423e-001  0.000000e+000 -4.228307e+000
    endloop
  endfacet
  facet normal  0.000000e+000  0.000000e+000 -1.000000e+000
    outer loop
      vertex -9.383423e-001  0.000000e+000 -4.228307e+000
      vertex -9.383423e-001  4.000000e+000 -4.228307e+000
      vertex -4.402404e-001  4.000000e+000 -4.228307e+000
    endloop
  endfacet
  facet normal  0.000000e+000  -0.000000e+000 -1.000000e+000
    outer loop
      vertex -9.383423e-001  0.000000e+000 -4.228307e+000
      vertex -4.402404e-001  4.000000e+000 -4.228307e+000
      vertex -4.402404e-001  0.000000e+000 -4.228307e+000
    endloop
  endfacet
  facet normal -2.817329e-001  0.000000e+000 -9.594928e-001
    outer loop
      vertex -4.402404e-001  0.000000e+000 -4.228307e+000
      vertex -4.402404e-001  4.000000e+000 -4.228307e+000
      vertex  3.768489e-002  4.000000e+000 -4.368639e+000
    endloop
  endfacet
  facet normal -2.817329e-001  -0.000000e+000 -9.594928e-001
    outer loop
      vertex -4.402404e-001  0.000000e+000 -4.228307e+000
      vertex  3.768489e-002  4.000000e+000 -4.368639e+000
      vertex  3.768489e-002  0.000000e+000 -4.368639e+000
    endloop
  endfacet
  facet normal -5.406408e-001  0.000000e+000 -8.412535e-001
    outer loop
      vertex  3.768489e-002  0.000000e+000 -4.368639e+000
      vertex  3.768489e-002  4.000000e+000 -4.368639e+000
      vertex  4.567149e-001  4.000000e+000 -4.637933e+000
    endloop
  endfacet
  facet normal -5.406408e-001  -0.000000e+000 -8.412535e-001
    outer loop
      vertex  3.768489e-002  0.000000e+000 -4.368639e+000
      vertex  4.567149e-001  4.000000e+000 -4.637933e+000
      vertex  4.567149e-001  0.000000e+000 -4.637933e+000
    endloop
  endfacet
  facet normal -7.557498e-001  0.000000e+000 -6.548606e-001
    outer loop
      vertex  4.567149e-001  0.000000e+000 -4.637933e+000
      vertex  4.567149e-001  4.000000e+000 -4.637933e+000
      vertex  7.829023e-001  4.000000e+000 -5.014374e+000
    endloop
  endfacet
  facet normal -7.557498e-001  -0.000000e+000 -6.548606e-001
    outer loop
      vertex  4.567149e-001  0.000000e+000 -4.637933e+000
      vertex  7.829023e-001  4.000000e+000 -5.014374e+000
      vertex  7.829023e-001  0.000000e+000 -5.014374e+000
    endloop
  endfacet
  facet normal -9.096319e-001  0.000000e+000 -4.154152e-001
    outer loop
      vertex  7.829023e-001  0.000000e+000 -5.014374e+000
      vertex  7.829023e-001  4.000000e+000 -5.014374e+000
      vertex  9.898213e-001  4.000000e+000 -5.467463e+000
    endloop
  endfacet
  facet normal -9.096319e-001  -0.000000e+000 -4.154152e-001
    outer loop
      vertex  7.829023e-001  0.000000e+000 -5.014374e+000
      vertex  9.898213e-001  4.000000e+000 -5.467463e+000
      vertex  9.898213e-001  0.000000e+000 -5.467463e+000
    endloop
  endfacet
  facet normal -9.898214e-001  0.000000e+000 -1.423149e-001
    outer loop
      vertex  9.898213e-001  0.000000e+000 -5.467463e+000
      vertex  9.898213e-001  4.000000e+000 -5.467463e+000
      vertex  1.060709e+000  4.000000e+000 -5.960495e+000
    endloop
  endfacet
  facet normal -9.898214e-001  -0.000000e+000 -1.423149e-001
    outer loop
      vertex  9.898213e-001  0.000000e+000 -5.467463e+000
      vertex  1.060709e+000  4.000000e+000 -5.960495e+000
      vertex  1.060709e+000  0.000000e+000 -5.960495e+000
    endloop
  endfacet
  facet normal -2.817329e-001  0.000000e+000  9.594928e-001
    outer loop
      vertex -4.402404e-001  4.000000e+000 -7.692683e+000
      vertex  3.768489e-002  0.000000e+000 -7.552351e+000
      vertex  3.768489e-002  4.000000e+000 -7.552351e+000
    endloop
  endfacet
  facet normal -5.406408e-001  0.000000e+000  8.412535e-001
    outer loop
      vertex  3.768489e-002  4.000000e+000 -7.552351e+000
      vertex  3.768489e-002  0.000000e+000 -7.552351e+000
      vertex  4.567149e-001  0.000000e+000 -7.283057e+000
    endloop
  endfacet
  facet normal -5.406408e-001  0.000000e+000  8.412535e-001
    outer loop
      vertex  3.768489e-002  4.000000e+000 -7.552351e+000
      vertex  4.567149e-001  0.000000e+000 -7.283057e+000
      vertex  4.567149e-001  4.000000e+000 -7.283057e+000
    endloop
  endfacet
  facet normal -7.557498e-001  0.000000e+000  6.548606e-001
    outer loop
      vertex  4.567149e-001  4.000000e+000 -7.283057e+000
      vertex  4.567149e-001  0.000000e+000 -7.283057e+000
      vertex  7.829023e-001  0.000000e+000 -6.906616e+000
    endloop
  endfacet
  facet normal -7.557498e-001  0.000000e+000  6.548606e-001
    outer loop
      vertex  4.567149e-001  4.000000e+000 -7.283057e+000
      vertex  7.829023e-001  0.000000e+000 -6.906616e+000
      vertex  7.829023e-001  4.000000e+000 -6.906616e+000
    endloop
  endfacet
  facet normal -9.096319e-001  0.000000e+000  4.154152e-001
    outer loop
      vertex  7.829023e-001  4.000000e+000 -6.906616e+000
      vertex  7.829023e-001  0.000000e+000 -6.906616e+000
      vertex  9.898213e-001  0.000000e+000 -6.453527e+000
    endloop
  endfacet
  facet normal -9.096319e-001  0.000000e+000  4.154152e-001
    outer loop
      vertex  7.829023e-001  4.000000e+000 -6.906616e+000
      vertex  9.898213e-001  0.000000e+000 -6.453527e+000
      vertex  9.898213e-001  4.000000e+000 -6.453527e+000
    endloop
  endfacet
  facet normal -9.898214e-001  0.000000e+000  1.423149e-001
    outer loop
      vertex  9.898213e-001  4.000000e+000 -6.453527e+000
      vertex  9.898213e-001  0.000000e+000 -6.453527e+000
      vertex  1.060709e+000  0.000000e+000 -5.960495e+000
    endloop
  endfacet
  facet normal -9.898214e-001  0.000000e+000  1.423149e-001
    outer loop
      vertex  9.898213e-001  4.000000e+000 -6.453527e+000
      vertex  1.060709e+000  0.000000e+000 -5.960495e+000
      vertex  1.060709e+000  4.000000e+000 -5.960495e+000
    endloop
  endfacet
  facet normal -2.817329e-001  0.000000e+000  9.594928e-001
    outer loop
      vertex  3.768489e-002  0.000000e+000 -7.552351e+000
      vertex -4.402404e-001  4.000000e+000 -7.692683e+000
      vertex -4.402404e-001  0.000000e+000 -7.692683e+000
    endloop
  endfacet
  facet normal  0.000000e+000  -0.000000e+000  1.000000e+000
    outer loop
      vertex -4.402404e-001  0.000000e+000 -7.692683e+000
      vertex -4.402404e-001  4.000000e+000 -7.692683e+000
      vertex -9.383423e-001  4.000000e+000 -7.692683e+000
    endloop
  endfacet
  facet normal  0.000000e+000  0.000000e+000  1.000000e+000
    outer loop
      vertex -4.402404e-001  0.000000e+000 -7.692683e+000
      vertex -9.383423e-001  4.000000e+000 -7.692683e+000
      vertex -9.383423e-001  0.000000e+000 -7.692683e+000
    endloop
  endfacet
  facet normal  2.817329e-001  -0.000000e+000  9.594928e-001
    outer loop
      vertex -9.383423e-001  0.000000e+000 -7.692683e+000
      vertex -9.383423e-001  4.000000e+000 -7.692683e+000
      vertex -1.416268e+000  4.000000e+000 -7.552351e+000
    endloop
  endfacet
  facet normal  2.817329e-001  0.000000e+000  9.594928e-001
    outer loop
      vertex -9.383423e-001  0.000000e+000 -7.692683e+000
      vertex -1.416268e+000  4.000000e+000 -7.552351e+000
      vertex -1.416268e+000  0.000000e+000 -7.552351e+000
    endloop
  endfacet
  facet normal  5.406408e-001  -0.000000e+000  8.412536e-001
    outer loop
      vertex -1.416268e+000  0.000000e+000 -7.552351e+000
      vertex -1.416268e+000  4.000000e+000 -7.552351e+000
      vertex -1.835298e+000  4.000000e+000 -7.283057e+000
    endloop
  endfacet
  facet normal  5.406408e-001  0.000000e+000  8.412536e-001
    outer loop
      vertex -1.416268e+000  0.000000e+000 -7.552351e+000
      vertex -1.835298e+000  4.000000e+000 -7.283057e+000
      vertex -1.835298e+000  0.000000e+000 -7.283057e+000
    endloop
  endfacet
  facet normal  7.557499e-001  -0.000000e+000  6.548604e-001
    outer loop
      vertex -1.835298e+000  0.000000e+000 -7.283057e+000
      vertex -1.835298e+000  4.000000e+000 -7.283057e+000
      vertex -2.161485e+000  4.000000e+000 -6.906616e+000
    endloop
  endfacet
  facet normal  7.557499e-001  0.000000e+000  6.548604e-001
    outer loop
      vertex -1.835298e+000  0.000000e+000 -7.283057e+000
      vertex -2.161485e+000  4.000000e+000 -6.906616e+000
      vertex -2.161485e+000  0.000000e+000 -6.906616e+000
    endloop
  endfacet
  facet normal  9.096318e-001  -0.000000e+000  4.154155e-001
    outer loop
      vertex -2.161485e+000  0.000000e+000 -6.906616e+000
      vertex -2.161485e+000  4.000000e+000 -6.906616e+000
      vertex -2.368404e+000  4.000000e+000 -6.453527e+000
    endloop
  endfacet
  facet normal  9.096318e-001  0.000000e+000  4.154155e-001
    outer loop
      vertex -2.161485e+000  0.000000e+000 -6.906616e+000
      vertex -2.368404e+000  4.000000e+000 -6.453527e+000
      vertex -2.368404e+000  0.000000e+000 -6.453527e+000
    endloop
  endfacet
  facet normal  9.898214e-001  -0.000000e+000  1.423149e-001
    outer loop
      vertex -2.368404e+000  0.000000e+000 -6.453527e+000
      vertex -2.368404e+000  4.000000e+000 -6.453527e+000
      vertex -2.439291e+000  4.000000e+000 -5.960495e+000
    endloop
  endfacet
  facet normal  9.898214e-001  0.000000e+000  1.423149e-001
    outer loop
      vertex -2.368404e+000  0.000000e+000 -6.453527e+000
      vertex -2.439291e+000  4.000000e+000 -5.960495e+000
      vertex -2.439291e+000  0.000000e+000 -5.960495e+000
    endloop
  endfacet
  facet normal  2.817329e-001  0.000000e+000 -9.594928e-001
    outer loop
      vertex -9.383423e-001  4.000000e+000  5.771693e+000
      vertex -1.416268e+000  0.000000e+000  5.631361e+000
      vertex -1.416268e+000  4.000000e+000  5.631361e+000
    endloop
  endfacet
  facet normal  5.406408e-001  0.000000e+000 -8.412536e-001
    outer loop
      vertex -1.416268e+000  4.000000e+000  5.631361e+000
      vertex -1.416268e+000  0.000000e+000  5.631361e+000
      vertex -1.835298e+000  0.000000e+000  5.362067e+000
    endloop
  endfacet
  facet normal  5.406408e-001  0.000000e+000 -8.412536e-001
    outer loop
      vertex -1.416268e+000  4.000000e+000  5.631361e+000
      vertex -1.835298e+000  0.000000e+000  5.362067e+000
      vertex -1.835298e+000  4.000000e+000  5.362067e+000
    endloop
  endfacet
  facet normal  7.557499e-001  0.000000e+000 -6.548604e-001
    outer loop
      vertex -1.835298e+000  4.000000e+000  5.362067e+000
      vertex -1.835298e+000  0.000000e+000  5.362067e+000
      vertex -2.161485e+000  0.000000e+000  4.985626e+000
    endloop
  endfacet
  facet normal  7.557499e-001  0.000000e+000 -6.548604e-001
    outer loop
      vertex -1.835298e+000  4.000000e+000  5.362067e+000
      vertex -2.161485e+000  0.000000e+000  4.985626e+000
      vertex -2.161485e+000  4.000000e+000  4.985626e+000
    endloop
  endfacet
  facet normal  9.096318e-001  0.000000e+000 -4.154155e-001
    outer loop
      vertex -2.161485e+000  4.000000e+000  4.985626e+000
      vertex -2.161485e+000  0.000000e+000  4.985626e+000
      vertex -2.368404e+000  0.000000e+000  4.532537e+000
    endloop
  endfacet
  facet normal  9.096318e-001  0.000000e+000 -4.154155e-001
    outer loop
      vertex -2.161485e+000  4.000000e+000  4.985626e+000
      vertex -2.368404e+000  0.000000e+000  4.532537e+000
      vertex -2.368404e+000  4.000000e+000  4.532537e+000
    endloop
  endfacet
  facet normal  9.898214e-001  0.000000e+000 -1.423149e-001
    outer loop
      vertex -2.368404e+000  4.000000e+000  4.532537e+000
      vertex -2.368404e+000  0.000000e+000  4.532537e+000
      vertex -2.439291e+000  0.000000e+000  4.039505e+000
    endloop
  endfacet
  facet normal  9.898214e-001  0.000000e+000 -1.423149e-001
    outer loop
      vertex -2.368404e+000  4.000000e+000  4.532537e+000
      vertex -2.439291e+000  0.000000e+000  4.039505e+000
      vertex -2.439291e+000  4.000000e+000  4.039505e+000
    endloop
  endfacet
  facet normal  2.817329e-001  0.000000e+000 -9.594928e-001
    outer loop
      vertex -1.416268e+000  0.000000e+000  5.631361e+000
      vertex -9.383423e-001  4.000000e+000  5.771693e+000
      vertex -9.383423e-001  0.000000e+000  5.771693e+000
    endloop
  endfacet
  facet normal  0.000000e+000  0.000000e+000 -1.000000e+000
    outer loop
      vertex -9.383423e-001  0.000000e+000  5.771693e+000
      vertex -9.383423e-001  4.000000e+000  5.771693e+000
      vertex -4.402404e-001  4.000000e+000  5.771693e+000
    endloop
  endfacet
  facet normal  0.000000e+000  -0.000000e+000 -1.000000e+000
    outer loop
      vertex -9.383423e-001  0.000000e+000  5.771693e+000
      vertex -4.402404e-001  4.000000e+000  5.771693e+000
      vertex -4.402404e-001  0.000000e+000  5.771693e+000
    endloop
  endfacet
  facet normal -2.817329e-001  0.000000e+000 -9.594928e-001
    outer loop
      vertex -4.402404e-001  0.000000e+000  5.771693e+000
      vertex -4.402404e-001  4.000000e+000  5.771693e+000
      vertex  3.768489e-002  4.000000e+000  5.631361e+000
    endloop
  endfacet
  facet normal -2.817329e-001  -0.000000e+000 -9.594928e-001
    outer loop
      vertex -4.402404e-001  0.000000e+000  5.771693e+000
      vertex  3.768489e-002  4.000000e+000  5.631361e+000
      vertex  3.768489e-002  0.000000e+000  5.631361e+000
    endloop
  endfacet
  facet normal -5.406408e-001  0.000000e+000 -8.412535e-001
    outer loop
      vertex  3.768489e-002  0.000000e+000  5.631361e+000
      vertex  3.768489e-002  4.000000e+000  5.631361e+000
      vertex  4.567149e-001  4.000000e+000  5.362067e+000
    endloop
  endfacet
  facet normal -5.406408e-001  -0.000000e+000 -8.412535e-001
    outer loop
      vertex  3.768489e-002  0.000000e+000  5.631361e+000
      vertex  4.567149e-001  4.000000e+000  5.362067e+000
      vertex  4.567149e-001  0.000000e+000  5.362067e+000
    endloop
  endfacet
  facet normal -7.557498e-001  0.000000e+000 -6.548606e-001
    outer loop
      vertex  4.567149e-001  0.000000e+000  5.362067e+000
      vertex  4.567149e-001  4.000000e+000  5.362067e+000
      vertex  7.829023e-001  4.000000e+000  4.985626e+000
    endloop
  endfacet
  facet normal -7.557498e-001  -0.000000e+000 -6.548606e-001
    outer loop
      vertex  4.567149e-001  0.000000e+000  5.362067e+000
      vertex  7.829023e-001  4.000000e+000  4.985626e+000
      vertex  7.829023e-001  0.000000e+000  4.985626e+000
    endloop
  endfacet
  facet normal -9.096319e-001  0.000000e+000 -4.154152e-001
    outer loop
      vertex  7.829023e-001  0.000000e+000  4.985626e+000
      vertex  7.829023e-001  4.000000e+000  4.985626e+000
      vertex  9.898213e-001  4.000000e+000  4.532537e+000
    endloop
  endfacet
  facet normal -9.096319e-001  -0.000000e+000 -4.154152e-001
    outer loop
      vertex  7.829023e-001  0.000000e+000  4.985626e+000
      vertex  9.898213e-001  4.000000e+000  4.532537e+000
      vertex  9.898213e-001  0.000000e+000  4.532537e+000
    endloop
  endfacet
  facet normal -9.898214e-001  0.000000e+000 -1.423149e-001
    outer loop
      vertex  9.898213e-001  0.000000e+000  4.532537e+000
      vertex  9.898213e-001  4.000000e+000  4.532537e+000
      vertex  1.060709e+000  4.000000e+000  4.039505e+000
    endloop
  endfacet
  facet normal -9.898214e-001  -0.000000e+000 -1.423149e-001
    outer loop
      vertex  9.898213e-001  0.000000e+000  4.532537e+000
      vertex  1.060709e+000  4.000000e+000  4.039505e+000
      vertex  1.060709e+000  0.000000e+000  4.039505e+000
    endloop
  endfacet
  facet normal -2.817325e-001  0.000000e+000  9.594930e-001
    outer loop
      vertex -4.402404e-001  4.000000e+000  2.307317e+000
      vertex  3.768489e-002  0.000000e+000  2.447649e+000
      vertex  3.768489e-002  4.000000e+000  2.447649e+000
    endloop
  endfacet
  facet normal -5.406408e-001  0.000000e+000  8.412535e-001
    outer loop
      vertex  3.768489e-002  4.000000e+000  2.447649e+000
      vertex  3.768489e-002  0.000000e+000  2.447649e+000
      vertex  4.567149e-001  0.000000e+000  2.716943e+000
    endloop
  endfacet
  facet normal -5.406408e-001  0.000000e+000  8.412535e-001
    outer loop
      vertex  3.768489e-002  4.000000e+000  2.447649e+000
      vertex  4.567149e-001  0.000000e+000  2.716943e+000
      vertex  4.567149e-001  4.000000e+000  2.716943e+000
    endloop
  endfacet
  facet normal -7.557495e-001  0.000000e+000  6.548608e-001
    outer loop
      vertex  4.567149e-001  4.000000e+000  2.716943e+000
      vertex  4.567149e-001  0.000000e+000  2.716943e+000
      vertex  7.829023e-001  0.000000e+000  3.093384e+000
    endloop
  endfacet
  facet normal -7.557495e-001  0.000000e+000  6.548608e-001
    outer loop
      vertex  4.567149e-001  4.000000e+000  2.716943e+000
      vertex  7.829023e-001  0.000000e+000  3.093384e+000
      vertex  7.829023e-001  4.000000e+000  3.093384e+000
    endloop
  endfacet
  facet normal -9.096320e-001  0.000000e+000  4.154150e-001
    outer loop
      vertex  7.829023e-001  4.000000e+000  3.093384e+000
      vertex  7.829023e-001  0.000000e+000  3.093384e+000
      vertex  9.898213e-001  0.000000e+000  3.546473e+000
    endloop
  endfacet
  facet normal -9.096320e-001  0.000000e+000  4.154150e-001
    outer loop
      vertex  7.829023e-001  4.000000e+000  3.093384e+000
      vertex  9.898213e-001  0.000000e+000  3.546473e+000
      vertex  9.898213e-001  4.000000e+000  3.546473e+000
    endloop
  endfacet
  facet normal -9.898214e-001  0.000000e+000  1.423149e-001
    outer loop
      vertex  9.898213e-001  4.000000e+000  3.546473e+000
      vertex  9.898213e-001  0.000000e+000  3.546473e+000
      vertex  1.060709e+000  0.000000e+000  4.039505e+000
    endloop
  endfacet
  facet normal -9.898214e-001  0.000000e+000  1.423149e-001
    outer loop
      vertex  9.898213e-001  4.000000e+000  3.546473e+000
      vertex  1.060709e+000  0.000000e+000  4.039505e+000
      vertex  1.060709e+000  4.000000e+000  4.039505e+000
    endloop
  endfacet
  facet normal -2.817325e-001  0.000000e+000  9.594930e-001
    outer loop
      vertex  3.768489e-002  0.000000e+000  2.447649e+000
      vertex -4.402404e-001  4.000000e+000  2.307317e+000
      vertex -4.402404e-001  0.000000e+000  2.307317e+000
    endloop
  endfacet
  facet normal  0.000000e+000  -0.000000e+000  1.000000e+000
    outer loop
      vertex -4.402404e-001  0.000000e+000  2.307317e+000
      vertex -4.402404e-001  4.000000e+000  2.307317e+000
      vertex -9.383423e-001  4.000000e+000  2.307317e+000
    endloop
  endfacet
  facet normal  0.000000e+000  0.000000e+000  1.000000e+000
    outer loop
      vertex -4.402404e-001  0.000000e+000  2.307317e+000
      vertex -9.383423e-001  4.000000e+000  2.307317e+000
      vertex -9.383423e-001  0.000000e+000  2.307317e+000
    endloop
  endfacet
  facet normal  2.817325e-001  -0.000000e+000  9.594930e-001
    outer loop
      vertex -9.383423e-001  0.000000e+000  2.307317e+000
      vertex -9.383423e-001  4.000000e+000  2.307317e+000
      vertex -1.416268e+000  4.000000e+000  2.447649e+000
    endloop
  endfacet
  facet normal  2.817325e-001  0.000000e+000  9.594930e-001
    outer loop
      vertex -9.383423e-001  0.000000e+000  2.307317e+000
      vertex -1.416268e+000  4.000000e+000  2.447649e+000
      vertex -1.416268e+000  0.000000e+000  2.447649e+000
    endloop
  endfacet
  facet normal  5.406408e-001  -0.000000e+000  8.412536e-001
    outer loop
      vertex -1.416268e+000  0.000000e+000  2.447649e+000
      vertex -1.416268e+000  4.000000e+000  2.447649e+000
      vertex -1.835298e+000  4.000000e+000  2.716943e+000
    endloop
  endfacet
  facet normal  5.406408e-001  0.000000e+000  8.412536e-001
    outer loop
      vertex -1.416268e+000  0.000000e+000  2.447649e+000
      vertex -1.835298e+000  4.000000e+000  2.716943e+000
      vertex -1.835298e+000  0.000000e+000  2.716943e+000
    endloop
  endfacet
  facet normal  7.557497e-001  -0.000000e+000  6.548606e-001
    outer loop
      vertex -1.835298e+000  0.000000e+000  2.716943e+000
      vertex -1.835298e+000  4.000000e+000  2.716943e+000
      vertex -2.161485e+000  4.000000e+000  3.093384e+000
    endloop
  endfacet
  facet normal  7.557497e-001  0.000000e+000  6.548606e-001
    outer loop
      vertex -1.835298e+000  0.000000e+000  2.716943e+000
      vertex -2.161485e+000  4.000000e+000  3.093384e+000
      vertex -2.161485e+000  0.000000e+000  3.093384e+000
    endloop
  endfacet
  facet normal  9.096318e-001  -0.000000e+000  4.154153e-001
    outer loop
      vertex -2.161485e+000  0.000000e+000  3.093384e+000
      vertex -2.161485e+000  4.000000e+000  3.093384e+000
      vertex -2.368404e+000  4.000000e+000  3.546473e+000
    endloop
  endfacet
  facet normal  9.096318e-001  0.000000e+000  4.154153e-001
    outer loop
      vertex -2.161485e+000  0.000000e+000  3.093384e+000
      vertex -2.368404e+000  4.000000e+000  3.546473e+000
      vertex -2.368404e+000  0.000000e+000  3.546473e+000
    endloop
  endfacet
  facet normal  9.898214e-001  -0.000000e+000  1.423149e-001
    outer loop
      vertex -2.368404e+000  0.000000e+000  3.546473e+000
      vertex -2.368404e+000  4.000000e+000  3.546473e+000
      vertex -2.439291e+000  4.000000e+000  4.039505e+000
    endloop
  endfacet
  facet normal  9.898214e-001  0.000000e+000  1.423149e-001
    outer loop
      vertex -2.368404e+000  0.000000e+000  3.546473e+000
      vertex -2.439291e+000  4.000000e+000  4.039505e+000
      vertex -2.439291e+000  0.000000e+000  4.039505e+000
    endloop
  endfacet
endsolid CATIA STL
